<svg width="183" height="36" viewBox="0 0 183 36" fill="none" xmlns="http://www.w3.org/2000/svg">
<path d="M11.666 14.76C12.746 17.04 14.114 19.032 15.77 20.736C17.426 22.44 19.07 23.544 20.702 24.048C20.702 25.056 20.438 25.836 19.91 26.388C19.382 26.94 18.626 27.216 17.642 27.216C16.37 27.216 14.918 26.4 13.286 24.768C11.654 23.112 10.226 21.168 9.00204 18.936C7.80204 16.68 7.09404 14.7 6.87804 12.996C8.60604 12.996 10.022 12.54 11.126 11.628C12.254 10.692 12.818 9.372 12.818 7.668C12.818 5.508 11.474 4.428 8.78604 4.428C7.92204 4.428 6.86604 4.572 5.61804 4.86C5.45004 8.1 5.36604 10.716 5.36604 12.708C5.36604 19.092 5.61804 23.712 6.12204 26.568C5.35404 26.856 4.53804 27 3.67404 27C2.81004 27 2.05404 26.724 1.40604 26.172C0.782039 25.62 0.470039 24.888 0.470039 23.976C0.470039 23.064 0.590039 21.48 0.830039 19.224C1.07004 16.944 1.19004 15.12 1.19004 13.752C1.19004 9.552 0.890039 5.82 0.290039 2.556C3.53004 1.668 6.61404 1.224 9.54204 1.224C14.894 1.224 17.57 3.132 17.57 6.948C17.57 8.628 16.994 10.212 15.842 11.7C14.714 13.164 13.322 14.184 11.666 14.76Z" fill="#082650"/>
<path d="M40.0951 10.044C39.4471 12.804 39.1231 15.576 39.1231 18.36C39.1231 21.12 39.4351 23.856 40.0591 26.568C39.1951 26.856 38.3071 27 37.3951 27C36.4831 27 35.8471 26.736 35.4871 26.208C35.1271 25.656 34.9471 24.876 34.9471 23.868C34.9471 22.836 35.1031 21.432 35.4151 19.656C33.7111 23.304 32.0671 25.608 30.4831 26.568C29.7631 27 29.0191 27.216 28.2511 27.216C26.4271 27.216 25.0111 26.544 24.0031 25.2C22.9951 23.832 22.4911 22.14 22.4911 20.124C22.4911 17.052 23.3431 14.364 25.0471 12.06C26.7511 9.732 28.9591 8.568 31.6711 8.568C34.4071 8.568 37.2151 9.06 40.0951 10.044ZM35.3791 12.204C34.1071 11.82 33.0271 11.628 32.1391 11.628C30.3391 11.628 28.9951 12.024 28.1071 12.816C27.2911 14.832 26.8831 16.884 26.8831 18.972C26.8831 20.076 27.0511 21.192 27.3871 22.32C27.7471 23.448 28.2871 24.012 29.0071 24.012C29.8471 24.012 30.9271 22.776 32.2471 20.304C33.5671 17.832 34.6111 15.132 35.3791 12.204Z" fill="#082650"/>
<path d="M44.3763 21.024L44.7363 15.84C44.7363 13.512 44.4003 11.304 43.7283 9.216C44.4003 8.928 45.2283 8.784 46.2123 8.784C48.1323 8.784 49.0923 9.852 49.0923 11.988C49.0923 12.948 48.9603 14.304 48.6963 16.056C48.4323 17.808 48.3003 19.02 48.3003 19.692C48.3003 20.34 48.3123 20.82 48.3363 21.132C48.3603 21.42 48.4203 21.768 48.5163 22.176C48.6603 22.992 49.1283 23.4 49.9203 23.4C50.7363 23.4 51.6003 22.764 52.5123 21.492C53.4483 20.196 54.1923 18.768 54.7443 17.208C55.3203 15.648 55.6083 14.412 55.6083 13.5C55.4883 11.604 55.2843 10.176 54.9963 9.216C55.7643 8.928 56.5443 8.784 57.3363 8.784C58.1523 8.784 58.8243 9.036 59.3523 9.54C59.9043 10.044 60.1803 10.716 60.1803 11.556C60.1803 24.66 57.7803 32.52 52.9803 35.136C51.9003 35.712 50.6763 36 49.3083 36C47.9403 36 46.7403 35.64 45.7083 34.92C44.7003 34.2 44.1963 33.192 44.1963 31.896C44.1963 31.032 44.5203 30.3 45.1683 29.7C45.8163 29.124 46.5843 28.836 47.4723 28.836C47.6643 28.836 47.9043 28.86 48.1923 28.908C48.1203 29.22 48.0843 29.496 48.0843 29.736C48.0843 31.848 48.8163 32.904 50.2803 32.904C51.1683 32.904 51.9723 32.424 52.6923 31.464C53.4123 30.504 53.9883 29.328 54.4203 27.936C55.2603 25.104 55.6803 22.536 55.6803 20.232C54.9603 22.176 53.9763 23.748 52.7283 24.948C51.5043 26.124 50.1723 26.712 48.7323 26.712C45.8283 26.712 44.3763 24.816 44.3763 21.024Z" fill="#082650"/>
<path d="M65.1395 22.176C65.9075 21.768 66.6875 21.564 67.4795 21.564C69.2555 21.564 70.1435 22.392 70.1435 24.048C70.1435 24.936 69.8435 25.692 69.2435 26.316C68.6435 26.916 67.9235 27.216 67.0835 27.216C66.2435 27.216 65.5955 26.976 65.1395 26.496C64.7075 26.016 64.4915 25.368 64.4915 24.552C64.4915 23.712 64.7075 22.92 65.1395 22.176Z" fill="#082650"/>
<path d="M74.8176 25.38C75.5616 21.804 75.9336 18.096 75.9336 14.256C75.9336 10.416 75.6336 6.528 75.0336 2.592C78.2976 1.68 81.1896 1.224 83.7096 1.224C87.4536 1.224 90.2976 2.208 92.2416 4.176C94.2096 6.12 95.1936 9.084 95.1936 13.068C95.1936 17.052 94.0776 20.412 91.8456 23.148C89.6376 25.86 86.5656 27.216 82.6296 27.216C79.9416 27.216 77.3376 26.604 74.8176 25.38ZM80.3976 4.86C80.1816 7.788 80.0736 10.632 80.0736 13.392C80.0736 16.128 80.2056 19.44 80.4696 23.328C81.4536 23.664 82.5576 23.832 83.7816 23.832C85.0056 23.832 86.0616 23.556 86.9496 23.004C87.8616 22.428 88.5576 21.648 89.0376 20.664C89.9736 18.792 90.4416 16.5 90.4416 13.788C90.4416 11.172 89.9376 9.012 88.9296 7.30799C87.8256 5.388 86.1096 4.428 83.7816 4.428C82.5096 4.428 81.3816 4.572 80.3976 4.86Z" fill="#082650"/>
<path d="M102.115 18.828C102.115 20.556 102.391 21.924 102.943 22.932C103.495 23.916 104.419 24.408 105.715 24.408C107.011 24.408 108.019 23.976 108.739 23.112C109.483 22.224 109.855 21.156 109.855 19.908C110.671 19.908 111.379 20.112 111.979 20.52C112.579 20.928 112.879 21.492 112.879 22.212C112.879 23.7 112.087 24.948 110.503 25.956C108.919 26.94 107.251 27.432 105.499 27.432C102.763 27.432 100.783 26.7 99.5586 25.236C98.3346 23.748 97.7226 21.552 97.7226 18.648C97.7226 15.744 98.5386 13.308 100.171 11.34C101.827 9.348 104.023 8.352 106.759 8.352C108.631 8.352 110.131 8.784 111.259 9.648C112.411 10.488 112.987 11.808 112.987 13.608C112.987 15.384 112.171 16.728 110.539 17.64C108.931 18.528 106.963 18.972 104.635 18.972C103.819 18.972 102.979 18.924 102.115 18.828ZM102.151 15.984C102.871 16.128 103.627 16.2 104.419 16.2C106.147 16.2 107.599 15.876 108.775 15.228C108.919 14.652 108.991 14.196 108.991 13.86C108.991 13.02 108.691 12.384 108.091 11.952C107.491 11.52 106.663 11.304 105.607 11.304C104.575 11.304 103.639 11.64 102.799 12.312C102.367 13.56 102.151 14.784 102.151 15.984Z" fill="#082650"/>
<path d="M120.306 20.448C120.234 20.784 120.198 21.06 120.198 21.276C120.198 22.26 120.486 23.016 121.062 23.544C121.662 24.072 122.454 24.336 123.438 24.336C124.446 24.336 125.274 24.156 125.922 23.796C126.594 23.412 126.93 22.848 126.93 22.104C126.93 21.36 126.57 20.772 125.85 20.34C125.154 19.884 124.302 19.524 123.294 19.26C122.31 18.996 121.314 18.708 120.306 18.396C119.298 18.06 118.434 17.544 117.714 16.848C117.018 16.152 116.67 15.276 116.67 14.22C116.67 12.564 117.546 11.172 119.298 10.044C121.05 8.916 122.886 8.352 124.806 8.352C126.918 8.352 128.526 8.784 129.63 9.648C130.278 10.152 130.602 10.824 130.602 11.664C130.602 12.48 130.278 13.152 129.63 13.68C129.006 14.184 128.238 14.436 127.326 14.436C127.134 14.436 126.894 14.412 126.606 14.364C126.678 14.052 126.714 13.776 126.714 13.536C126.714 12.84 126.45 12.312 125.922 11.952C125.394 11.592 124.674 11.412 123.762 11.412C122.874 11.412 122.058 11.592 121.314 11.952C121.026 12.336 120.882 12.828 120.882 13.428C120.882 14.028 121.23 14.52 121.926 14.904C122.622 15.264 123.462 15.588 124.446 15.876C125.454 16.14 126.462 16.452 127.47 16.812C128.478 17.148 129.33 17.688 130.026 18.432C130.722 19.152 131.07 20.064 131.07 21.168C131.07 22.968 130.17 24.468 128.37 25.668C126.594 26.844 124.758 27.432 122.862 27.432C120.966 27.432 119.394 27.096 118.146 26.424C116.922 25.728 116.31 24.684 116.31 23.292C116.31 22.428 116.622 21.732 117.246 21.204C117.894 20.652 118.674 20.376 119.586 20.376C119.778 20.376 120.018 20.4 120.306 20.448Z" fill="#082650"/>
<path d="M134.349 9.108C135.117 8.892 135.885 8.784 136.653 8.784C137.445 8.784 138.117 9.024 138.669 9.504C139.221 9.984 139.497 10.608 139.497 11.376C139.497 12.12 139.365 13.428 139.101 15.3C138.861 17.148 138.741 18.588 138.741 19.62C138.741 22.308 138.993 24.624 139.497 26.568C138.753 26.856 137.949 27 137.085 27C136.221 27 135.537 26.808 135.033 26.424C134.529 26.016 134.277 25.44 134.277 24.696C134.277 23.928 134.421 22.68 134.709 20.952C134.997 19.224 135.141 17.796 135.141 16.668C135.141 13.668 134.877 11.148 134.349 9.108ZM134.817 0.971995C135.657 0.587996 136.485 0.395996 137.301 0.395996C138.117 0.395996 138.717 0.611996 139.101 1.044C139.509 1.452 139.713 2.064 139.713 2.88C139.713 3.696 139.437 4.416 138.885 5.04C138.357 5.664 137.661 5.976 136.797 5.976C135.021 5.976 134.133 5.052 134.133 3.204C134.133 2.388 134.361 1.644 134.817 0.971995Z" fill="#082650"/>
<path d="M156.341 12.204C155.069 11.82 153.809 11.628 152.561 11.628C151.313 11.628 150.137 12 149.033 12.744C148.169 14.472 147.737 16.308 147.737 18.252C147.737 19.38 147.893 20.484 148.205 21.564C148.517 22.62 149.033 23.148 149.753 23.148C150.569 23.148 151.661 21.984 153.029 19.656C154.397 17.328 155.501 14.844 156.341 12.204ZM150.941 32.904C152.477 32.904 153.677 32.376 154.541 31.32C155.405 30.264 155.837 28.908 155.837 27.252C155.837 26.436 155.777 25.248 155.657 23.688C155.561 22.128 155.501 21.024 155.477 20.376C153.773 23.352 152.285 25.176 151.013 25.848C150.365 26.184 149.681 26.352 148.961 26.352C147.161 26.352 145.769 25.644 144.785 24.228C143.801 22.812 143.309 21.084 143.309 19.044C143.309 16.26 144.173 13.824 145.901 11.736C147.653 9.624 149.861 8.568 152.525 8.568C155.213 8.568 157.925 9.036 160.661 9.972C159.941 12.54 159.581 15.06 159.581 17.532C159.581 18.708 159.665 20.172 159.833 21.924C160.001 23.652 160.085 24.936 160.085 25.776C160.085 28.728 159.149 31.164 157.277 33.084C155.405 35.028 153.005 36 150.077 36C148.349 36 146.861 35.664 145.613 34.992C144.389 34.344 143.777 33.324 143.777 31.932C143.777 31.068 144.101 30.336 144.749 29.736C145.397 29.136 146.165 28.836 147.053 28.836C147.245 28.836 147.485 28.86 147.773 28.908C147.701 29.22 147.665 29.496 147.665 29.736C147.665 30.6 147.989 31.344 148.637 31.968C149.285 32.592 150.053 32.904 150.941 32.904Z" fill="#082650"/>
<path d="M181.46 12.456L181.1 20.376C181.1 22.56 181.436 24.696 182.108 26.784C181.436 27.072 180.668 27.216 179.804 27.216C177.764 27.216 176.744 26.076 176.744 23.796C176.744 22.764 176.876 21.036 177.14 18.612C177.404 16.164 177.536 14.628 177.536 14.004C177.536 12.804 176.996 12.204 175.916 12.204C175.124 12.204 174.224 12.78 173.216 13.932C172.232 15.06 171.38 16.332 170.66 17.748C169.964 19.14 169.556 20.292 169.436 21.204C169.532 23.076 169.772 24.864 170.156 26.568C169.388 26.856 168.584 27 167.744 27C166.928 27 166.256 26.808 165.728 26.424C165.224 26.016 164.972 25.464 164.972 24.768C164.972 24.048 165.08 22.776 165.296 20.952C165.512 19.104 165.62 17.28 165.62 15.48C165.62 13.656 165.344 11.568 164.792 9.216C165.56 8.928 166.376 8.784 167.24 8.784C168.104 8.784 168.8 9.036 169.328 9.54C169.88 10.044 170.156 10.668 170.156 11.412C170.156 12.156 170.06 13.344 169.868 14.976C170.78 13.272 171.968 11.784 173.432 10.512C174.896 9.216 176.36 8.568 177.824 8.568C180.248 8.568 181.46 9.864 181.46 12.456Z" fill="#082650"/>
</svg>
